HIERARCHY
ROOT mixamorig:Hips
{
	OFFSET -0.000007 99.791939 0.000048
	CHANNELS 6 Xposition Yposition Zposition Xrotation Yrotation Zrotation
	JOINT mixamorig:Spine
	{
		OFFSET -0.000008 9.923462 -1.227335
		CHANNELS 3 Xrotation Yrotation Zrotation
		JOINT mixamorig:Spine1
		{
			OFFSET -0.001162 11.645439 -1.422341
			CHANNELS 3 Xrotation Yrotation Zrotation
			JOINT mixamorig:Spine2
			{
				OFFSET -0.001082 13.360199 -1.626459
				CHANNELS 3 Xrotation Yrotation Zrotation
				JOINT mixamorig:Neck
				{
					OFFSET -0.001294 15.032486 0.792904
					CHANNELS 3 Xrotation Yrotation Zrotation
					JOINT mixamorig:Head
					{
						OFFSET -0.000902 10.321838 3.142429
						CHANNELS 3 Xrotation Yrotation Zrotation
						JOINT mixamorig:HeadTop_End
						{
							OFFSET -0.001464 18.474670 6.636400
							CHANNELS 3 Xrotation Yrotation Zrotation
							End Site
							{
								OFFSET -0.001724 19.630463 0.000000
							}
						}
					}
				}
				JOINT mixamorig:LeftShoulder
				{
					OFFSET 6.105025 9.110947 0.705547
					CHANNELS 3 Xrotation Yrotation Zrotation
					JOINT mixamorig:LeftArm
					{
						OFFSET 12.655060 -0.264816 -2.600928
						CHANNELS 3 Xrotation Yrotation Zrotation
						JOINT mixamorig:LeftForeArm
						{
							OFFSET 27.404680 0.002457 -0.000007
							CHANNELS 3 Xrotation Yrotation Zrotation
							JOINT mixamorig:LeftHand
							{
								OFFSET 27.614456 0.002457 0.000007
								CHANNELS 3 Xrotation Yrotation Zrotation
								JOINT mixamorig:LeftHandThumb1
								{
									OFFSET 3.789009 -2.166824 3.002973
									CHANNELS 3 Xrotation Yrotation Zrotation
									JOINT mixamorig:LeftHandThumb2
									{
										OFFSET 3.675636 -2.121704 2.122010
										CHANNELS 3 Xrotation Yrotation Zrotation
										JOINT mixamorig:LeftHandThumb3
										{
											OFFSET 3.394531 -1.959473 1.959746
											CHANNELS 3 Xrotation Yrotation Zrotation
											JOINT mixamorig:LeftHandThumb4
											{
												OFFSET 2.679504 -1.546753 1.546951
												CHANNELS 3 Xrotation Yrotation Zrotation
												End Site
												{
													OFFSET 2.400604 -1.530380 1.964751
												}
											}
										}
									}
								}
								JOINT mixamorig:LeftHandIndex1
								{
									OFFSET 12.266647 -0.230743 2.822040
									CHANNELS 3 Xrotation Yrotation Zrotation
									JOINT mixamorig:LeftHandIndex2
									{
										OFFSET 3.891968 0.000336 0.000037
										CHANNELS 3 Xrotation Yrotation Zrotation
										JOINT mixamorig:LeftHandIndex3
										{
											OFFSET 3.415161 0.000305 -0.000010
											CHANNELS 3 Xrotation Yrotation Zrotation
											JOINT mixamorig:LeftHandIndex4
											{
												OFFSET 3.077995 0.000275 -0.000009
												CHANNELS 3 Xrotation Yrotation Zrotation
												End Site
												{
													OFFSET 3.077988 0.000259 0.000131
												}
											}
										}
									}
								}
								JOINT mixamorig:LeftHandMiddle1
								{
									OFFSET 12.775536 0.001129 0.000014
									CHANNELS 3 Xrotation Yrotation Zrotation
									JOINT mixamorig:LeftHandMiddle2
									{
										OFFSET 3.613968 0.000320 0.000000
										CHANNELS 3 Xrotation Yrotation Zrotation
										JOINT mixamorig:LeftHandMiddle3
										{
											OFFSET 3.459763 0.000305 -0.000028
											CHANNELS 3 Xrotation Yrotation Zrotation
											JOINT mixamorig:LeftHandMiddle4
											{
												OFFSET 3.680191 0.000320 0.000031
												CHANNELS 3 Xrotation Yrotation Zrotation
												End Site
												{
													OFFSET 3.680191 0.000351 -0.004814
												}
											}
										}
									}
								}
								JOINT mixamorig:LeftHandRing1
								{
									OFFSET 12.147018 0.011063 -2.216636
									CHANNELS 3 Xrotation Yrotation Zrotation
									JOINT mixamorig:LeftHandRing2
									{
										OFFSET 3.601181 0.000320 0.000033
										CHANNELS 3 Xrotation Yrotation Zrotation
										JOINT mixamorig:LeftHandRing3
										{
											OFFSET 3.307320 0.000305 -0.000023
											CHANNELS 3 Xrotation Yrotation Zrotation
											JOINT mixamorig:LeftHandRing4
											{
												OFFSET 3.660118 0.000320 0.000000
												CHANNELS 3 Xrotation Yrotation Zrotation
												End Site
												{
													OFFSET 3.660103 0.000229 0.005616
												}
											}
										}
									}
								}
								JOINT mixamorig:LeftHandPinky1
								{
									OFFSET 10.908218 -0.225174 -4.725837
									CHANNELS 3 Xrotation Yrotation Zrotation
									JOINT mixamorig:LeftHandPinky2
									{
										OFFSET 4.136658 0.000351 0.001166
										CHANNELS 3 Xrotation Yrotation Zrotation
										JOINT mixamorig:LeftHandPinky3
										{
											OFFSET 2.594826 0.000244 -0.001180
											CHANNELS 3 Xrotation Yrotation Zrotation
											JOINT mixamorig:LeftHandPinky4
											{
												OFFSET 2.923874 0.000244 0.000018
												CHANNELS 3 Xrotation Yrotation Zrotation
												End Site
												{
													OFFSET 2.923851 0.000275 -0.003346
												}
											}
										}
									}
								}
							}
						}
					}
				}
				JOINT mixamorig:RightShoulder
				{
					OFFSET -6.106495 9.109970 0.705565
					CHANNELS 3 Xrotation Yrotation Zrotation
					JOINT mixamorig:RightArm
					{
						OFFSET -12.655020 -0.267136 -2.600890
						CHANNELS 3 Xrotation Yrotation Zrotation
						JOINT mixamorig:RightForeArm
						{
							OFFSET -27.404675 -0.002365 0.000019
							CHANNELS 3 Xrotation Yrotation Zrotation
							JOINT mixamorig:RightHand
							{
								OFFSET -27.614464 -0.002396 0.000031
								CHANNELS 3 Xrotation Yrotation Zrotation
								JOINT mixamorig:RightHandThumb1
								{
									OFFSET -3.788620 -2.167480 3.002977
									CHANNELS 3 Xrotation Yrotation Zrotation
									JOINT mixamorig:RightHandThumb2
									{
										OFFSET -3.675247 -2.122314 2.122009
										CHANNELS 3 Xrotation Yrotation Zrotation
										JOINT mixamorig:RightHandThumb3
										{
											OFFSET -3.394188 -1.960129 1.959755
											CHANNELS 3 Xrotation Yrotation Zrotation
											JOINT mixamorig:RightHandThumb4
											{
												OFFSET -2.679230 -1.547195 1.546953
												CHANNELS 3 Xrotation Yrotation Zrotation
												End Site
												{
													OFFSET -2.398781 -1.531693 1.965949
												}
											}
										}
									}
								}
								JOINT mixamorig:RightHandIndex1
								{
									OFFSET -12.266594 -0.232895 2.822051
									CHANNELS 3 Xrotation Yrotation Zrotation
									JOINT mixamorig:RightHandIndex2
									{
										OFFSET -3.891968 -0.000336 0.000040
										CHANNELS 3 Xrotation Yrotation Zrotation
										JOINT mixamorig:RightHandIndex3
										{
											OFFSET -3.415161 -0.000305 -0.000006
											CHANNELS 3 Xrotation Yrotation Zrotation
											JOINT mixamorig:RightHandIndex4
											{
												OFFSET -3.077988 -0.000275 0.000006
												CHANNELS 3 Xrotation Yrotation Zrotation
												End Site
												{
													OFFSET -3.077980 0.000229 -0.008454
												}
											}
										}
									}
								}
								JOINT mixamorig:RightHandMiddle1
								{
									OFFSET -12.775528 -0.001114 0.000025
									CHANNELS 3 Xrotation Yrotation Zrotation
									JOINT mixamorig:RightHandMiddle2
									{
										OFFSET -3.613968 -0.000320 0.000005
										CHANNELS 3 Xrotation Yrotation Zrotation
										JOINT mixamorig:RightHandMiddle3
										{
											OFFSET -3.459763 -0.000305 -0.000025
											CHANNELS 3 Xrotation Yrotation Zrotation
											JOINT mixamorig:RightHandMiddle4
											{
												OFFSET -3.680191 -0.000320 0.000034
												CHANNELS 3 Xrotation Yrotation Zrotation
												End Site
												{
													OFFSET -3.680168 -0.000031 0.012581
												}
											}
										}
									}
								}
								JOINT mixamorig:RightHandRing1
								{
									OFFSET -12.147003 0.008942 -2.216624
									CHANNELS 3 Xrotation Yrotation Zrotation
									JOINT mixamorig:RightHandRing2
									{
										OFFSET -3.601196 -0.000320 0.000037
										CHANNELS 3 Xrotation Yrotation Zrotation
										JOINT mixamorig:RightHandRing3
										{
											OFFSET -3.307312 -0.000290 -0.000019
											CHANNELS 3 Xrotation Yrotation Zrotation
											JOINT mixamorig:RightHandRing4
											{
												OFFSET -3.660118 -0.000320 0.000002
												CHANNELS 3 Xrotation Yrotation Zrotation
												End Site
												{
													OFFSET -3.660110 0.000107 0.002180
												}
											}
										}
									}
								}
								JOINT mixamorig:RightHandPinky1
								{
									OFFSET -10.908173 -0.227081 -4.725826
									CHANNELS 3 Xrotation Yrotation Zrotation
									JOINT mixamorig:RightHandPinky2
									{
										OFFSET -4.136642 -0.000366 0.000029
										CHANNELS 3 Xrotation Yrotation Zrotation
										JOINT mixamorig:RightHandPinky3
										{
											OFFSET -2.594841 -0.000229 -0.000036
											CHANNELS 3 Xrotation Yrotation Zrotation
											JOINT mixamorig:RightHandPinky4
											{
												OFFSET -2.923874 -0.000259 0.000021
												CHANNELS 3 Xrotation Yrotation Zrotation
												End Site
												{
													OFFSET -2.923820 0.000336 -0.012876
												}
											}
										}
									}
								}
							}
						}
					}
				}
			}
		}
	}
	JOINT mixamorig:LeftUpLeg
	{
		OFFSET 9.124458 -6.656387 -0.055378
		CHANNELS 3 Xrotation Yrotation Zrotation
		JOINT mixamorig:LeftLeg
		{
			OFFSET 0.244681 -40.595421 -0.515619
			CHANNELS 3 Xrotation Yrotation Zrotation
			JOINT mixamorig:LeftFoot
			{
				OFFSET -0.244669 -42.047928 -2.059156
				CHANNELS 3 Xrotation Yrotation Zrotation
				JOINT mixamorig:LeftToeBase
				{
					OFFSET 0.373535 -7.208548 13.966561
					CHANNELS 3 Xrotation Yrotation Zrotation
					JOINT mixamorig:LeftToe_End
					{
						OFFSET -0.142059 -0.175224 9.997455
						CHANNELS 3 Xrotation Yrotation Zrotation
						End Site
						{
							OFFSET -0.142060 -0.175223 9.997459
						}
					}
				}
			}
		}
	}
	JOINT mixamorig:RightUpLeg
	{
		OFFSET -9.124448 -6.656403 -0.055378
		CHANNELS 3 Xrotation Yrotation Zrotation
		JOINT mixamorig:RightLeg
		{
			OFFSET -0.244680 -40.595459 -0.514290
			CHANNELS 3 Xrotation Yrotation Zrotation
			JOINT mixamorig:RightFoot
			{
				OFFSET 0.244670 -42.047859 -2.060535
				CHANNELS 3 Xrotation Yrotation Zrotation
				JOINT mixamorig:RightToeBase
				{
					OFFSET -0.373535 -7.208539 13.966558
					CHANNELS 3 Xrotation Yrotation Zrotation
					JOINT mixamorig:RightToe_End
					{
						OFFSET 0.141798 -0.175009 9.997463
						CHANNELS 3 Xrotation Yrotation Zrotation
						End Site
						{
							OFFSET 0.141798 -0.175009 9.997467
						}
					}
				}
			}
		}
	}
}
MOTION
Frames: 4
Frame Time: 0.033333
-0.002679 96.526749 0.300824 6.393860 1.804422 1.017986 5.617323 5.539634 -1.526031 0.385213 1.524077 -1.053133 0.375570 1.532047 -1.063668 -3.585729 6.802023 -5.670044 -22.734131 66.916886 4.154837 -0.000000 0.000000 -0.000001 0.511008 -6.002061 -11.699154 12.079610 -29.275331 -59.397470 -41.924541 -28.377402 -15.471068 -6.800332 20.517297 9.616897 46.385912 -9.588342 30.228877 -1.714700 23.028143 -6.195094 -25.227814 -32.358578 21.696535 0.000002 0.000001 0.000001 -0.288515 1.184385 -18.969320 0.396335 2.120012 -21.182831 0.012416 0.382017 -3.730639 0.000000 -0.000000 -0.000002 8.718153 0.513539 -23.906902 0.232700 2.231750 -12.878964 -0.379242 1.235329 -3.908869 -0.000000 -0.000001 0.000004 0.905202 11.507936 -15.898724 -1.838333 2.953034 -34.818262 -2.712019 1.191880 -14.623068 -0.000001 -0.000000 0.000002 7.987625 16.938077 -14.016929 0.900072 3.106483 -32.418356 0.914263 3.170924 -32.418666 -0.000002 0.000000 0.000001 0.154160 11.293307 15.731652 21.157085 27.027926 69.213237 -47.071318 20.854494 2.953036 -11.630172 -1.459380 2.330785 0.203698 9.460138 -16.435628 0.099288 -6.536200 -0.166245 4.627734 -0.659303 0.442270 0.000001 0.000003 0.000001 0.187578 -4.140911 5.426621 0.089327 -0.907760 11.222036 0.123523 1.067082 -13.217342 0.000000 0.000000 0.000000 2.351225 -6.797246 16.190453 0.066661 -0.785497 9.689216 0.001403 -0.114576 1.406685 0.000000 0.000001 0.000001 5.749408 -7.109514 20.024515 0.044906 -0.644947 7.953974 0.083797 -0.880360 10.873107 0.000000 0.000000 0.000004 -14.027056 -39.654931 0.010936 0.457595 -2.014189 25.592408 0.458119 -2.016465 25.592417 -0.000003 -0.000000 0.000002 -17.825464 2.462880 -0.325918 27.897334 -4.340979 -0.553096 -16.403210 -0.357665 1.358201 -2.580258 2.212843 -1.845408 0.000000 0.000000 -0.000000 -10.805609 -12.291229 3.275669 23.662834 -0.956487 -2.601314 -19.585912 0.550529 -2.624633 -2.905996 2.718394 -2.156408 -0.000000 0.000001 -0.000000 
-0.079720 96.551598 0.536790 6.021598 3.085254 0.697344 5.771692 5.602268 -1.691303 0.439770 1.547220 -1.075614 0.429678 1.555472 -1.086938 -3.508516 6.362774 -5.615867 -23.420068 62.493936 3.590960 0.000000 -0.000000 -0.000000 0.511611 -5.882449 -11.741221 12.446503 -29.155581 -59.335458 -39.744604 -30.220411 -15.816444 -6.461719 21.578989 8.484728 43.139728 -9.042102 30.786931 0.896828 21.378193 -7.559329 -25.318948 -31.975763 20.595529 0.000002 0.000004 0.000006 -0.759797 0.619316 -18.802029 0.402384 2.135561 -21.345806 0.013719 0.401362 -3.919859 -0.000000 -0.000000 -0.000001 8.274512 0.133592 -24.919127 0.253436 2.283375 -13.405146 -0.368058 1.290740 -4.417053 -0.000000 0.000000 -0.000005 0.539246 10.950131 -15.613379 -1.800690 3.027097 -35.359538 -2.688682 1.271410 -15.172673 -0.000000 0.000001 -0.000000 7.302397 15.765444 -13.635691 0.885237 3.082794 -32.144762 0.894844 3.140167 -32.062848 -0.000002 0.000001 -0.000000 0.191128 11.209611 15.407087 21.316327 27.377027 70.404968 -48.635598 21.517338 2.333475 -11.608300 -2.121658 3.284118 -2.080786 9.160774 -17.919911 2.259883 -4.902551 1.163877 5.010856 -0.782239 1.332276 -0.000002 0.000002 -0.000001 -0.285520 -3.567159 5.276014 0.092437 -0.923257 11.416059 0.118721 1.046421 -12.956921 0.000000 0.000000 -0.000000 2.063852 -6.476981 17.266001 0.074519 -0.830215 10.246753 0.002636 -0.156723 1.924210 0.000000 0.000000 -0.000001 5.388597 -6.601868 19.683953 0.052884 -0.699608 8.632174 0.092727 -0.925646 11.439849 0.000000 -0.000000 0.000004 -14.370607 -38.365791 0.259590 0.450543 -1.999409 25.391291 0.446601 -1.992299 25.263326 -0.000003 -0.000002 -0.000001 -17.464445 1.913830 -0.313311 28.048170 -5.169849 -0.224152 -16.682889 -0.296489 1.362605 -2.477331 2.194224 -2.264740 0.000000 -0.000000 0.000000 -9.896554 -12.237398 3.631276 23.127944 -2.190500 -2.220664 -19.598191 0.687345 -2.959997 -2.960833 2.644313 -2.124488 -0.000000 0.000000 0.000000 
-0.148402 96.455536 0.715451 5.679912 4.706534 0.288014 5.939544 5.358077 -1.693891 0.492173 1.481875 -1.056789 0.482571 1.490069 -1.068010 -3.346868 5.812390 -5.392779 -23.103499 56.905714 2.669205 0.000000 0.000000 -0.000000 0.472691 -6.272573 -12.327251 13.348323 -28.192921 -58.982187 -38.565960 -32.267169 -16.568692 -6.171336 22.018312 7.543694 39.638453 -8.771654 31.293669 3.963929 19.538793 -9.056815 -25.355542 -31.455125 19.154676 0.000005 0.000005 -0.000001 -1.256874 -0.012690 -18.404341 0.404790 2.141717 -21.410401 0.014678 0.415309 -4.056323 0.000001 -0.000001 0.000005 7.715180 -0.242515 -25.778032 0.269447 2.317945 -13.871243 -0.359363 1.326174 -4.833534 -0.000000 -0.000000 0.000004 0.084306 10.230404 -15.200805 -1.744564 3.085089 -35.761105 -2.644398 1.338748 -15.599177 -0.000002 -0.000000 -0.000003 6.490835 14.359674 -13.247055 0.862483 3.045983 -31.721547 0.860028 3.083976 -31.416148 -0.000002 0.000000 -0.000002 0.235032 10.904949 15.125790 21.413068 27.555013 71.104393 -47.607293 22.236731 1.215512 -11.531784 -2.225062 3.410188 -4.445056 9.142757 -19.095597 4.739268 -3.116559 2.727821 5.434788 -1.331134 2.356372 -0.000000 0.000002 0.000002 -0.775041 -2.903210 4.948706 0.094841 -0.935120 11.564749 0.112791 1.020286 -12.627778 -0.000000 0.000001 0.000000 1.706067 -6.092432 18.229707 0.082742 -0.874514 10.799945 0.003983 -0.192416 2.362746 0.000001 0.000002 0.000000 4.919705 -5.982622 19.198796 0.062696 -0.761484 9.401397 0.100425 -0.962835 11.906133 -0.000000 -0.000001 -0.000000 -14.537889 -36.753764 0.831002 0.442685 -1.982774 25.165134 0.426861 -1.949968 24.689327 0.000002 0.000001 -0.000002 -17.561808 1.600468 -0.295208 29.138670 -6.153078 0.427081 -17.802173 -0.033145 1.282327 -2.315782 2.349356 -3.566117 -0.000000 -0.000000 0.000001 -9.315764 -12.477667 4.068752 23.126544 -3.584174 -2.021280 -19.934961 0.775110 -3.045085 -2.829476 2.533863 -2.041467 -0.000000 0.000000 -0.000000 
-0.208791 96.172920 0.751879 5.487191 6.362703 -0.178025 6.098650 4.732635 -1.654975 0.517524 1.311187 -1.021563 0.509113 1.319665 -1.031494 -3.190818 5.196195 -5.025774 -22.652841 50.105124 2.931778 -0.000001 0.000002 0.000000 0.430315 -6.690706 -12.852583 13.861794 -26.819697 -58.958719 -38.992594 -33.295533 -17.319659 -6.111637 21.393641 7.288042 36.502915 -9.359036 31.801292 7.346764 17.588847 -10.604257 -25.362097 -30.653688 16.980842 0.000001 0.000004 0.000002 -1.702814 -0.710033 -17.389105 0.400346 2.130356 -21.291219 0.014681 0.415240 -4.055654 0.000000 0.000001 0.000002 7.093258 -0.576044 -25.855562 0.270593 2.313943 -14.005970 -0.354500 1.316370 -4.889470 0.000000 0.000000 -0.000005 -0.435846 9.389044 -14.397769 -1.688796 3.091117 -35.755337 -2.586916 1.348821 -15.636803 0.000000 0.000000 -0.000000 5.676771 12.930758 -12.925017 0.824595 2.983260 -31.004800 0.803128 2.988916 -30.332290 -0.000002 0.000000 -0.000001 0.240445 10.765560 15.203221 21.233431 26.475912 71.217809 -44.864152 23.382745 0.682182 -11.348130 -2.224312 2.744724 -6.311669 9.861783 -19.641107 7.430124 -1.281059 4.459053 6.107012 -2.248057 3.860729 0.000001 0.000001 0.000001 -1.227975 -2.167045 4.058209 0.095165 -0.936628 11.583610 0.107239 0.995191 -12.312189 0.000000 -0.000000 -0.000000 1.260674 -5.629179 18.449328 0.086838 -0.895641 11.064158 0.004284 -0.199798 2.453419 -0.000000 0.000001 -0.000002 4.382444 -5.320100 18.314228 0.070856 -0.809294 9.996908 0.102058 -0.970617 12.003796 0.000000 0.000000 0.000000 -14.457309 -35.032952 1.684667 0.429172 -1.953784 24.772131 0.394655 -1.878386 23.724882 -0.000000 -0.000002 0.000002 -18.328432 1.089625 -0.109444 31.105160 -5.988076 0.943814 -19.215177 0.322544 0.903308 -1.969562 2.119534 -3.355708 0.000000 -0.000000 0.000000 -9.625918 -13.182952 4.795261 24.451367 -4.613085 -2.723008 -21.100993 0.729676 -2.731932 -2.415147 2.216675 -1.795334 -0.000000 -0.000000 -0.000000 
